<svg xmlns="http://www.w3.org/2000/svg" viewBox="0 0 68 68"><path d="M33.992 40.458a4.507 4.507 0 0 1 4.508 4.507 4.512 4.512 0 0 1-3.263 4.334v.523a1.24 1.24 0 0 1-1.245 1.245c-.685 0-1.245-.56-1.245-1.245v-.523c-1.88-.548-3.263-2.279-3.263-4.334 0-.684.56-1.245 1.245-1.245s1.246.56 1.246 1.245c0 1.109.909 2.018 2.017 2.018 1.12 0 2.017-.91 2.017-2.018 0-1.12-.896-2.017-2.017-2.017-2.478 0-4.508-2.03-4.508-4.52 0-2.042 1.382-3.785 3.263-4.333v-.523c0-.685.56-1.245 1.245-1.245.697 0 1.245.56 1.245 1.245v.523c1.88.548 3.263 2.279 3.263 4.333 0 .697-.549 1.245-1.246 1.245a1.24 1.24 0 0 1-1.245-1.245 2.017 2.017 0 0 0-2.017-2.017 2.025 2.025 0 0 0-2.017 2.017c0 1.12.909 2.03 2.017 2.03z" fill="#d85b53" class="color000000 svgShape"></path><path d="M59.684 21.346H45.43c-3.272 0-5.935-2.653-5.935-5.925V2.02c-.304-.033-21.61-.02-21.915-.02a9.317 9.317 0 0 0-9.321 9.322V56.67c0 5.15 4.17 9.331 9.32 9.331h32.837c5.14 0 9.321-4.18 9.321-9.331 0-.62.033-34.713-.051-35.324zM15.526 10.41h18.852a1.032 1.032 0 1 1 0 2.064H15.525a1.032 1.032 0 1 1 0-2.064zm0 7.598a1.032 1.032 0 1 1 0-2.064h18.852a1.032 1.032 0 1 1 0 2.064H15.525zm18.476 38.62c-8.258 0-14.937-6.689-14.937-14.936 0-8.238 6.679-14.927 14.937-14.927 8.237 0 14.926 6.69 14.926 14.927 0 8.247-6.688 14.936-14.926 14.936z" fill="#d85b53" class="color000000 svgShape"></path><path d="M45.425 19.286h13.836a9.425 9.425 0 0 0-2.426-3.793L45.374 4.566a9.356 9.356 0 0 0-3.814-2.19v13.045a3.867 3.867 0 0 0 3.865 3.865z" fill="#d85b53" class="color000000 svgShape"></path></svg>